# AST/ASF file generated using VICON BodyLanguage
# -----------------------------------------------
:version 1.10
:name VICON
:units
  mass 1.0
  length 0.45
  angle deg
:documentation
   .ast/.asf automatically generated from VICON data using
   VICON BodyBuilder and BodyLanguage model FoxedUp or BRILLIANT.MOD
:root
   order TX TY TZ RX RY RZ
   axis XYZ
   position 0 0 0  
   orientation 0 0 0 
:bonedata
  begin
     id 1 
     name lhipjoint
     direction 0.78388 -0.462562 0.414208 
     length 3.01181 
     axis 0 0 0  XYZ
  end
  begin
     id 2 
     name lfemur
     direction 0.34202 -0.939693 0  
     length 6.04673  
     axis 0 0 20  XYZ
    dof rx ry rz
    limits (-160.0 20.0)
           (-70.0 70.0)
           (-60.0 70.0)
  end
  begin
     id 3 
     name ltibia
     direction 0.34202 -0.939693 0   
     length 7.211   
     axis 0 0 20   XYZ
    dof rx
    limits (-10.0 170.0)
  end
  begin
     id 4 
     name lfoot
     direction 0.121887 -0.334882 0.934344   
     length 2.13567   
     axis -90 7.62852e-016 20   XYZ
    dof rx rz
    limits (-45.0 90.0)
           (-70.0 20.0)
  end
  begin
     id 5 
     name ltoes
     direction 1.53555e-011 -4.2179e-011 1   
     length 1.05957   
     axis -90 7.62852e-016 20   XYZ
    dof rx
    limits (-90.0 20.0)
  end
  begin
     id 6 
     name rhipjoint
     direction -0.769387 -0.475875 0.426129   
     length 2.92756  
     axis 0 0 0  XYZ 
  end
  begin
     id 7 
     name rfemur
     direction -0.34202 -0.939693 0   
     length 6.35468   
     axis 0 0 -20   XYZ
    dof rx ry rz
    limits (-160.0 20.0)
           (-70.0 70.0)
           (-70.0 60.0)
  end
  begin
     id 8 
     name rtibia
     direction -0.34202 -0.939693 0   
     length 7.37886   
     axis 0 0 -20   XYZ
    dof rx
    limits (-10.0 170.0)
 end
 begin
     id 9 
     name rfoot
     direction -0.101763 -0.279592 0.954711   
     length 2.21478  
     axis -90 -7.62852e-016 -20   XYZ
    dof rx rz
    limits (-45.0 90.0)
           (-20.0 70.0)
  end
  begin
     id 10 
     name rtoes
     direction -1.53494e-011 -4.21851e-011 1   
     length 1.10506   
     axis -90 -7.62852e-016 -20   XYZ
    dof rx
    limits (-90.0 20.0)
  end
  begin
     id 11 
     name lowerback
     direction 0.00747405 0.999267 0.0375481   
     length 2.13259   
     axis 0 0 0   XYZ
    dof rx ry rz
    limits (-20.0 45.0)
           (-30.0 30.0)
           (-30.0 30.0)
  end
  begin
     id 12 
     name upperback
     direction 0.00661626 0.996177 0.0871029   
     length 2.10528   
     axis 0 0 0   XYZ
    dof rx ry rz
    limits (-20.0 45.0)
           (-30.0 30.0)
           (-30.0 30.0)
  end
  begin
     id 13 
     name thorax
     direction 0.00320659 0.997679 0.0680167   
     length 2.11338   
     axis 0 0 0   XYZ
    dof rx ry rz
    limits (-20.0 45.0)
           (-30.0 30.0)
           (-30.0 30.0)
  end
  begin
     id 14 
     name lowerneck
     direction 0.0374841 0.973033 0.227602   
     length 1.42765   
     axis 0 0 0   XYZ
    dof rx ry rz
    limits (-20.0 45.0)
           (-30.0 30.0)
           (-30.0 30.0)
  end
  begin
     id 15 
     name upperneck
     direction 0.00481585 0.989155 -0.146795   
     length 1.47593   
     axis 0 0 0   XYZ
    dof rx ry rz
    limits (-20.0 45.0)
           (-30.0 30.0)
           (-30.0 30.0)
  end
  begin
     id 16
     name head
     direction -0.00292522 0.997206 -0.0746423  
     length 1.48116  
     axis 0 0 0   XYZ
    dof rx ry rz
    limits (-20.0 45.0)
           (-30.0 30.0)
           (-30.0 30.0)
  end
  begin
     id 17 
     name lclavicle
     direction 0.951444 0.305606 0.0368784  
     length 3.01855  
     axis 0 0 0   XYZ
    dof ry rz
    limits (-20.0 10.0)
           (0.0 20.0)
  end
  begin
     id 18 
     name lhumerus
     direction 1 -4.48977e-011 2.61664e-027   
     length 5.52731   
     axis 180 -30 -90   XYZ
    dof rx ry rz
    limits (-60.0 90.0)
           (-90.0 90.0)
           (-90.0 90.0)
  end
  begin
     id 19
     name lradius
     direction 1 -4.48944e-011 8.22157e-027   
     length 3.11059   
     axis 180 -30 -90   XYZ
    dof rx
    limits (-10.0 170.0)
  end
  begin
     id 20
     name lwrist
     direction 1 -4.48976e-011 1.5779e-026   
     length 1.5553   
     axis -1.15221e-014 90 90   XYZ
    dof ry
    limits (-180.0 0.0)
 end
  begin
     id 21 
     name lhand
     direction 1 -4.49025e-011 3.1558e-026   
     length 0.419626   
     axis -2.01367e-014 90 90   XYZ
    dof rx rz
    limits (-90.0 90.0)
           (-45.0 45.0)
  end
  begin
     id 22 
     name lfingers
     direction 1 -4.4904e-011 6.31161e-026   
     length 0.338313   
     axis -4.02734e-014 90 90   XYZ
    dof rx
    limits (0.0 90.0)
  end
  begin
     id 23
     name lthumb
     direction 0.707107 -6.35004e-011 0.707107   
     length 0.485752   
     axis -90 45 2.85299e-015   XYZ
    dof rx rz
    limits (-45.0 45.0)
           (-45.0 45.0)
  end
  begin
     id 24 
     name rclavicle
     direction -0.968876 0.223791 0.105816   
     length 3.04177  
     axis 0 0 0   XYZ 
    dof ry rz
    limits (-10.0 20.0)
           (-20.0 0.0)
  end
  begin
     id 25 
     name rhumerus
     direction -1 -4.48962e-011 -1.01384e-027  
     length 5.25396   
     axis 180 30 90   XYZ
    dof rx ry rz
    limits (-90.0 60.0)
           (-90.0 90.0)
           (-90.0 90.0)
  end
  begin
     id 26 
     name rradius
     direction -1 -4.48955e-011 8.88542e-027   
     length 3.10567   
     axis 180 30 90   XYZ
    dof rx
    limits (-10.0 170.0)
  end
  begin
     id 27 
     name rwrist
     direction -1 -4.48994e-011 1.5779e-026   
     length 1.55283   
     axis -1.15221e-014 -90 -90   XYZ
    dof ry
    limits (-180.0 0.0)
  end
  begin
     id 28
     name rhand
     direction -1 -4.48891e-011 3.1558e-026   
     length 0.498676   
     axis -2.01367e-014 -90 -90   XYZ
    dof rx rz
    limits (-90.0 90.0)
           (-45.0 45.0)
  end
  begin
     id 29
     name rfingers
     direction -1 -4.48972e-011 6.31161e-026   
     length 0.402045   
     axis -4.02734e-014 -90 -90   XYZ
    dof rx
    limits (0.0 90.0)
  end
  begin
     id 30
     name rthumb
     direction -0.707107 -6.34849e-011 0.707107   
     length 0.577259   
     axis -90 -45 -2.85299e-015   XYZ
    dof rx rz
    limits (-45.0 45.0)
           (-45.0 45.0)
  end
:hierarchy
  begin
    root lhipjoint rhipjoint lowerback
    lhipjoint lfemur
    lfemur ltibia
    ltibia lfoot
    lfoot ltoes
    rhipjoint rfemur
    rfemur rtibia
    rtibia rfoot
    rfoot rtoes
    lowerback upperback
    upperback thorax
    thorax lowerneck lclavicle rclavicle
    lowerneck upperneck
    upperneck head
    lclavicle lhumerus
    lhumerus lradius
    lradius lwrist
    lwrist lhand lthumb
    lhand lfingers
    rclavicle rhumerus
    rhumerus rradius
    rradius rwrist
    rwrist rhand rthumb
    rhand rfingers
  end

#!OML:ASF H:\Pregnant\Project 1\Capture day 1\Session 1\femalepreg.ASF
:FULLY-SPECIFIED
:DEGREES
100
root 5.48009 15.3359 24.1219 201.117 -43.4164 -178.747
lowerback -17.6354 1.79043 -0.426036
upperback -6.71084 1.8405 -3.14891
thorax 2.78604 0.572818 -2.73834
lowerneck -22.7284 4.53308 4.45708
upperneck 22.1494 8.18329 -14.2808
head 11.9306 2.00057 -4.7626
rclavicle 1.1865e-014 4.21423e-014
rhumerus -22.0799 -44.2112 2.32576
rradius 25.1678
rwrist 15.1207
rhand -17.0661 -16.6909
rfingers 7.12502
rthumb 9.17158 -46.4714
lclavicle 1.1865e-014 4.21423e-014
lhumerus -26.6983 38.4218 -10.5835
lradius 26.5106
lwrist 16.8039
lhand -26.2547 6.09407
lfingers 7.12502
lthumb 0.299726 36.0736
rfemur -39.8763 9.03434 26.9268
rtibia 41.3002
rfoot -18.0182 -24.5389
rtoes 0.478924
lfemur -26.8264 1.94323 -23.8949
ltibia 30.4608
lfoot -17.9912 28.2594
ltoes -15.0595
101
root 5.47577 15.3305 24.0901 200.764 -42.8727 -178.483
lowerback -17.5528 1.82989 -0.0675606
upperback -6.65094 1.84081 -3.05819
thorax 2.81619 0.575268 -2.84614
lowerneck -22.6402 4.51335 4.44581
upperneck 22.112 8.12726 -14.1772
head 11.8847 1.99357 -4.72806
rclavicle -2.08972e-014 3.49861e-014
rhumerus -22.0858 -44.6017 2.36404
rradius 25.0467
rwrist 15.6173
rhand -16.8046 -16.5129
rfingers 7.12502
rthumb 9.42389 -46.2822
lclavicle -2.08972e-014 3.49861e-014
lhumerus -26.6725 38.6509 -10.6131
lradius 26.453
lwrist 16.6584
lhand -26.2199 6.37522
lfingers 7.12502
lthumb 0.33336 36.3547
rfemur -39.4108 9.4765 27.1331
rtibia 40.9743
rfoot -17.8706 -24.4398
rtoes 0.391224
lfemur -27.6097 2.88379 -23.788
ltibia 32.4421
lfoot -17.9016 27.8233
ltoes -15.6378
102
root 5.47303 15.3243 24.0582 200.395 -42.3566 -178.195
lowerback -17.4461 1.85555 0.285733
upperback -6.5957 1.82337 -2.95075
thorax 2.82678 0.569334 -2.93714
lowerneck -22.5662 4.48181 4.43758
upperneck 22.1084 8.05436 -14.0624
head 11.8522 1.97874 -4.69427
rclavicle -5.95112e-014 2.14687e-014
rhumerus -22.1027 -45.011 2.43251
rradius 24.9276
rwrist 16.1334
rhand -16.5367 -16.3507
rfingers 7.12502
rthumb 9.68241 -46.1082
lclavicle -5.95112e-014 2.14687e-014
lhumerus -26.6293 38.8774 -10.6365
lradius 26.4152
lwrist 16.5061
lhand -26.1661 6.65053
lfingers 7.12502
lthumb 0.38528 36.6299
rfemur -38.9365 9.88843 27.3827
rtibia 40.6311
rfoot -17.7117 -24.3357
rtoes 0.274703
lfemur -28.5062 3.69492 -23.6086
ltibia 34.591
lfoot -17.6889 27.4458
ltoes -16.1608
103
root 5.47196 15.3175 24.0269 200.012 -41.8562 -177.874
lowerback -17.3121 1.87101 0.644595
upperback -6.54762 1.7913 -2.83197
thorax 2.81396 0.556039 -3.02256
lowerneck -22.4969 4.44393 4.44004
upperneck 22.1226 7.96745 -13.9326
head 11.8253 1.95991 -4.65972
rclavicle -5.50385e-015 4.92986e-014
rhumerus -22.1263 -45.3484 2.4936
rradius 24.8323
rwrist 16.5789
rhand -16.2581 -16.2204
rfingers 7.12502
rthumb 9.95119 -45.9652
lclavicle -5.50385e-015 4.92986e-014
lhumerus -26.5672 39.0675 -10.6577
lradius 26.4009
lwrist 16.3737
lhand -26.1329 6.90746
lfingers 7.12502
lthumb 0.417346 36.8868
rfemur -38.462 10.2705 27.6773
rtibia 40.2673
rfoot -17.5343 -24.2131
rtoes 0.131838
lfemur -29.5044 4.37018 -23.3553
ltibia 36.8718
lfoot -17.328 27.1393
ltoes -16.5978
104
root 5.47204 15.3109 23.9964 199.621 -41.3616 -177.53
lowerback -17.1472 1.88896 1.0128
upperback -6.50977 1.76111 -2.70925
thorax 2.77378 0.543115 -3.10919
lowerneck -22.4298 4.3892 4.4269
upperneck 22.1625 7.85742 -13.7739
head 11.8039 1.93209 -4.61638
rclavicle 6.08778e-015 -3.89618e-014
rhumerus -22.1847 -45.5498 2.56986
rradius 24.7718
rwrist 16.8907
rhand -15.9732 -16.1226
rfingers 7.12502
rthumb 10.226 -45.854
lclavicle 6.08778e-015 -3.89618e-014
lhumerus -26.4569 39.2142 -10.6448
lradius 26.4057
lwrist 16.2727
lhand -26.0931 7.10334
lfingers 7.12502
lthumb 0.45582 37.0826
rfemur -37.9832 10.6109 28.0096
rtibia 39.8815
rfoot -17.3538 -24.0493
rtoes -0.00565807
lfemur -30.5731 4.91445 -23.0389
ltibia 39.2376
lfoot -16.8126 26.8799
ltoes -16.8041
105
root 5.47263 15.3048 23.9669 199.228 -40.8615 -177.169
lowerback -16.963 1.90162 1.38121
upperback -6.47497 1.72485 -2.57848
thorax 2.71897 0.526947 -3.18881
lowerneck -22.3784 4.33461 4.42518
upperneck 22.2215 7.74455 -13.6099
head 11.7928 1.90344 -4.57429
rclavicle 1.10058e-013 -7.95139e-016
rhumerus -22.2364 -45.5973 2.61383
rradius 24.7489
rwrist 17.0286
rhand -15.71 -16.0866
rfingers 7.12502
rthumb 10.4799 -45.8053
lclavicle 1.10058e-013 -7.95139e-016
lhumerus -26.3451 39.3749 -10.6464
lradius 26.419
lwrist 16.1623
lhand -26.067 7.24137
lfingers 7.12502
lthumb 0.48099 37.2206
rfemur -37.5042 10.898 28.3717
rtibia 39.4797
rfoot -17.1863 -23.8205
rtoes -0.107078
lfemur -31.6871 5.32902 -22.6704
ltibia 41.6434
lfoot -16.1114 26.6531
ltoes -16.7252
106
root 5.47328 15.2992 23.9386 198.842 -40.3443 -176.801
lowerback -16.7644 1.92064 1.75366
upperback -6.44243 1.69779 -2.44891
thorax 2.65429 0.514913 -3.27043
lowerneck -22.3451 4.27329 4.42007
upperneck 22.3052 7.62191 -13.4305
head 11.793 1.87059 -4.52837
rclavicle -1.27346e-015 -2.54444e-014
rhumerus -22.3147 -45.4852 2.65359
rradius 24.7675
rwrist 16.9796
rhand -15.4624 -16.0766
rfingers 7.12502
rthumb 10.7188 -45.7832
lclavicle -1.27346e-015 -2.54444e-014
lhumerus -26.1975 39.4736 -10.6158
lradius 26.4512
lwrist 16.1296
lhand -26.0494 7.30326
lfingers 7.12502
lthumb 0.497999 37.2824
rfemur -37.0329 11.1373 28.7516
rtibia 39.0754
rfoot -17.0374 -23.519
rtoes -0.156294
lfemur -32.8229 5.61647 -22.2579
ltibia 44.0497
lfoot -15.2636 26.4105
ltoes -16.1721
107
root 5.47357 15.2934 23.9117 198.472 -39.7955 -176.432
lowerback -16.5554 1.94628 2.12416
upperback -6.4127 1.68108 -2.31929
thorax 2.58132 0.507485 -3.34907
lowerneck -22.3449 4.21263 4.41163
upperneck 22.4247 7.50202 -13.2411
head 11.8134 1.83726 -4.47913
rclavicle -8.38933e-014 -3.02153e-014
rhumerus -22.4096 -45.3898 2.71468
rradius 24.791
rwrist 16.9072
rhand -15.2541 -16.0801
rfingers 7.12502
rthumb 10.9196 -45.7761
lclavicle -8.38933e-014 -3.02153e-014
lhumerus -26.0492 39.6242 -10.5978
lradius 26.4786
lwrist 16.0465
lhand -26.0412 7.29615
lfingers 7.12502
lthumb 0.505929 37.2753
rfemur -36.5854 11.3268 29.14
rtibia 38.6892
rfoot -16.9067 -23.1249
rtoes -0.151574
lfemur -33.9715 5.78992 -21.8146
ltibia 46.4266
lfoot -14.2738 26.1222
ltoes -15.1362
108
root 5.47311 15.2865 23.8862 198.12 -39.2078 -176.066
lowerback -16.3418 1.98198 2.49778
upperback -6.38174 1.67902 -2.19466
thorax 2.50801 0.50695 -3.43214
lowerneck -22.3881 4.15725 4.41657
upperneck 22.5842 7.38889 -13.0534
head 11.8594 1.80487 -4.43345
rclavicle -1.05437e-013 -6.52014e-014
rhumerus -22.5254 -45.2885 2.78792
rradius 24.8205
rwrist 16.7892
rhand -15.0897 -16.0784
rfingers 7.12502
rthumb 11.0783 -45.766
lclavicle -1.05437e-013 -6.52014e-014
lhumerus -25.8858 39.7033 -10.5606
lradius 26.5211
lwrist 16.0353
lhand -26.0492 7.25757
lfingers 7.12502
lthumb 0.498214 37.2367
rfemur -36.1753 11.4788 29.5308
rtibia 38.3458
rfoot -16.7989 -22.6568
rtoes -0.17254
lfemur -35.1259 5.85214 -21.3465
ltibia 48.7551
lfoot -13.1489 25.7815
ltoes -13.7109
109
root 5.47163 15.278 23.862 197.803 -38.5682 -175.713
lowerback -16.1403 2.02863 2.85501
upperback -6.34771 1.69493 -2.07053
thorax 2.44504 0.515309 -3.50307
lowerneck -22.4898 4.10872 4.41439
upperneck 22.7933 7.29046 -12.8615
head 11.9377 1.77489 -4.38455
rclavicle -1.1873e-013 -4.45278e-014
rhumerus -22.6481 -45.1545 2.86291
rradius 24.8619
rwrist 16.5985
rhand -14.9705 -16.0786
rfingers 7.12502
rthumb 11.1932 -45.76
lclavicle -1.1873e-013 -4.45278e-014
lhumerus -25.7244 39.7507 -10.5127
lradius 26.565
lwrist 16.0338
lhand -26.0572 7.16575
lfingers 7.12502
lthumb 0.490487 37.1449
rfemur -35.8255 11.6135 29.907
rtibia 38.0692
rfoot -16.7015 -22.1254
rtoes -0.261976
lfemur -36.2853 5.83646 -20.8728
ltibia 51.0168
lfoot -11.9504 25.3447
ltoes -12.0903
110
root 5.46877 15.2675 23.8391 197.533 -37.8707 -175.388
lowerback -15.9644 2.08522 3.18102
upperback -6.30666 1.72903 -1.94632
thorax 2.4035 0.533205 -3.55265
lowerneck -22.6405 4.07017 4.4225
upperneck 23.0341 7.21032 -12.6941
head 12.0423 1.74774 -4.34529
rclavicle -1.56419e-014 -1.90833e-014
rhumerus -22.7761 -45.0186 2.94363
rradius 24.9119
rwrist 16.371
rhand -14.8876 -16.0862
rfingers 7.12502
rthumb 11.2731 -45.7632
lclavicle -1.56419e-014 -1.90833e-014
lhumerus -25.596 39.9118 -10.4968
lradius 26.5842
lwrist 15.884
lhand -26.0474 7.01078
lfingers 7.12502
lthumb 0.499943 36.9899
rfemur -35.5491 11.7407 30.2528
rtibia 37.8747
rfoot -16.6349 -21.5413
rtoes -0.436411
lfemur -37.4425 5.75825 -20.4104
ltibia 53.1855
lfoot -10.793 24.7147
ltoes -10.5924
111
root 5.46415 15.2551 23.8174 197.324 -37.1102 -175.104
lowerback -15.8176 2.15474 3.46917
upperback -6.26185 1.78527 -1.82807
thorax 2.38237 0.562419 -3.58276
lowerneck -22.8254 4.03935 4.43488
upperneck 23.2895 7.14589 -12.552
head 12.1635 1.72286 -4.31469
rclavicle 8.75149e-014 -1.03368e-014
rhumerus -22.9107 -44.8784 3.03259
rradius 24.9649
rwrist 16.1154
rhand -14.8707 -16.1392
rfingers 7.12502
rthumb 11.2895 -45.8153
lclavicle 8.75149e-014 -1.03368e-014
lhumerus -25.4764 40.0566 -10.47
lradius 26.5956
lwrist 15.6945
lhand -26.0517 6.8644
lfingers 7.12502
lthumb 0.495773 36.8436
rfemur -35.356 11.8762 30.5498
rtibia 37.7681
rfoot -16.5922 -20.924
rtoes -0.716515
lfemur -38.5916 5.61646 -19.9725
ltibia 55.2235
lfoot -9.75275 23.7604
ltoes -9.60691
112
root 5.45699 15.2425 23.7963 197.186 -36.2842 -174.882
lowerback -15.7008 2.23287 3.70575
upperback -6.21611 1.85913 -1.72071
thorax 2.37873 0.600596 -3.59163
lowerneck -23.036 4.01952 4.4321
upperneck 23.5571 7.10314 -12.4143
head 12.2975 1.7042 -4.28006
rclavicle 7.59854e-014 4.37326e-014
rhumerus -23.0355 -44.7435 3.11518
rradius 25.0166
rwrist 15.8536
rhand -14.8786 -16.1972
rfingers 7.12502
rthumb 11.2819 -45.8738
lclavicle 7.59854e-014 4.37326e-014
lhumerus -25.3806 40.1974 -10.4508
lradius 26.5914
lwrist 15.4351
lhand -26.0289 6.67558
lfingers 7.12502
lthumb 0.51788 36.6547
rfemur -35.2363 12.0353 30.7714
rtibia 37.7454
rfoot -16.5796 -20.2874
rtoes -1.06011
lfemur -39.7084 5.43167 -19.5823
ltibia 57.079
lfoot -8.9241 22.3477
ltoes -9.3392
